<?xml version="1.0" encoding="UTF-8" standalone="no"?>
<!-- Creator: CorelDRAW -->

<svg
   xmlns:dc="http://purl.org/dc/elements/1.1/"
   xmlns:cc="http://creativecommons.org/ns#"
   xmlns:rdf="http://www.w3.org/1999/02/22-rdf-syntax-ns#"
   xmlns:svg="http://www.w3.org/2000/svg"
   xmlns="http://www.w3.org/2000/svg"
   xmlns:sodipodi="http://sodipodi.sourceforge.net/DTD/sodipodi-0.dtd"
   xmlns:inkscape="http://www.inkscape.org/namespaces/inkscape"
   xml:space="preserve"
   width="40px"
   height="80px"
   shape-rendering="geometricPrecision"
   text-rendering="geometricPrecision"
   image-rendering="optimizeQuality"
   fill-rule="evenodd"
   clip-rule="evenodd"
   viewBox="0 0 500 500"
   id="svg2"
   version="1.1"
   inkscape:version="0.48.4 r9939"
   sodipodi:docname="route3.svg"><metadata
     id="metadata16"><rdf:RDF><cc:Work
         rdf:about=""><dc:format>image/svg+xml</dc:format><dc:type
           rdf:resource="http://purl.org/dc/dcmitype/StillImage" /><dc:title></dc:title></cc:Work></rdf:RDF></metadata><defs
     id="defs14" /><sodipodi:namedview
     pagecolor="#ffffff"
     bordercolor="#666666"
     borderopacity="1"
     objecttolerance="10"
     gridtolerance="10"
     guidetolerance="10"
     inkscape:pageopacity="0"
     inkscape:pageshadow="2"
     inkscape:window-width="1440"
     inkscape:window-height="841"
     id="namedview12"
     showgrid="false"
     inkscape:zoom="7.55"
     inkscape:cx="20.794702"
     inkscape:cy="40.794702"
     inkscape:window-x="0"
     inkscape:window-y="27"
     inkscape:window-maximized="1"
     inkscape:current-layer="svg2"
     showguides="true"
     inkscape:guide-bbox="true"><sodipodi:guide
       orientation="1,0"
       position="5.1655629,43.311258"
       id="guide3006" /><sodipodi:guide
       orientation="0,1"
       position="-13.245033,80"
       id="guide3008" /><sodipodi:guide
       orientation="1,0"
       position="34.437086,51.788079"
       id="guide3040" /></sodipodi:namedview><g
     id="Ebene_x0020_1-0"
     transform="translate(2.1186395,733.05085)"><metadata
       id="CorelCorpID_0Corel-Layer-2" /></g><rect
     style="fill:#f37b16;fill-opacity:1"
     id="rect3050"
     width="23.844652"
     height="365.44504"
     x="233.94514"
     y="72.062767" /><g
     id="g3097"
     transform="translate(2.781457e-6,-673.84106)"><path
       transform="matrix(12.908879,0,0,11.565421,148.34902,-57.157886)"
       d="m 21.854305,55.761589 c 0,7.827082 -6.345103,14.172186 -14.1721856,14.172186 -7.82708217,0 -14.1721859,-6.345104 -14.1721859,-14.172186 0,-7.827082 6.34510373,-14.172186 14.1721859,-14.172186 7.8270826,0 14.1721856,6.345104 14.1721856,14.172186 z"
       sodipodi:ry="14.172186"
       sodipodi:rx="14.172186"
       sodipodi:cy="55.761589"
       sodipodi:cx="7.6821194"
       id="path3019"
       style="fill:#f37b16;fill-opacity:1"
       sodipodi:type="arc" /><path
       transform="matrix(10.455608,0,0,9.3674678,164.71188,65.403453)"
       d="m 21.854305,55.761589 c 0,7.827082 -6.345103,14.172186 -14.1721856,14.172186 -7.82708217,0 -14.1721859,-6.345104 -14.1721859,-14.172186 0,-7.827082 6.34510373,-14.172186 14.1721859,-14.172186 7.8270826,0 14.1721856,6.345104 14.1721856,14.172186 z"
       sodipodi:ry="14.172186"
       sodipodi:rx="14.172186"
       sodipodi:cy="55.761589"
       sodipodi:cx="7.6821194"
       id="path3019-9"
       style="fill:#ffffff;fill-opacity:1"
       sodipodi:type="arc" /><g
       style="fill:#f37b16;fill-opacity:1"
       transform="matrix(0.73590287,0,0,0.5695364,62.713024,451.98677)"
       id="Ebene_x0020_2-9-0"><metadata
         id="CorelCorpID_1Corel-Layer-1-5" /><path
         id="path10-8-9"
         d="m 347.464,50 c 23.402,0 29.35,17.625 31.904,33.35 7.679,47.267 8.964,92.283 9.153,141.57 0.111,28.43 -1.976,64.537 -9.815,96.44 -3.511,14.288 -8.174,27.733 -14.313,39.267 -5.857,11.007 -17.421,17.433 -30.359,17.433 l -168.068,0 c -12.938,0 -24.502,-6.426 -30.359,-17.433 -6.139,-11.534 -10.802,-24.979 -14.313,-39.267 -7.839,-31.903 -9.926,-68.01 -9.815,-96.44 0.189,-49.287 1.474,-94.303 9.153,-141.57 C 123.186,67.625 129.134,50 152.536,50 l 194.928,0 z m 5.898,261.738 -61.76,0 0,32.824 45.188,0 c 9.116,0 16.572,-7.385 16.572,-16.412 l 0,-16.412 z m -144.964,0 -61.76,0 0,16.412 c 0,9.026 7.456,16.412 16.572,16.412 l 45.188,0 0,-32.824 z M 389.768,450 l 0,-16.744 -55.593,-8.36 0,-26.884 -26.092,0 0,26.74 -116.166,0 0,-26.74 -26.092,0 0,26.884 -55.593,8.36 0,16.744 279.536,0 z M 144.478,87.693 c -5.598,37.66 -7.706,85.467 -8.058,136.467 l 113.58,0 113.58,0 c -0.352,-51 -2.46,-98.807 -8.058,-136.467 l -211.044,0 z"
         inkscape:connector-curvature="0"
         style="fill:#f37b16;fill-opacity:1" /></g></g></svg>