<?xml version="1.0" encoding="UTF-8" standalone="no"?>
<!-- Creator: CorelDRAW -->

<svg
   xmlns:dc="http://purl.org/dc/elements/1.1/"
   xmlns:cc="http://creativecommons.org/ns#"
   xmlns:rdf="http://www.w3.org/1999/02/22-rdf-syntax-ns#"
   xmlns:svg="http://www.w3.org/2000/svg"
   xmlns="http://www.w3.org/2000/svg"
   xmlns:sodipodi="http://sodipodi.sourceforge.net/DTD/sodipodi-0.dtd"
   xmlns:inkscape="http://www.inkscape.org/namespaces/inkscape"
   xml:space="preserve"
   width="5cm"
   height="5cm"
   shape-rendering="geometricPrecision"
   text-rendering="geometricPrecision"
   image-rendering="optimizeQuality"
   fill-rule="evenodd"
   clip-rule="evenodd"
   viewBox="0 0 500 500"
   id="svg2"
   version="1.1"
   inkscape:version="0.48.4 r9939"
   sodipodi:docname="station.svg"><metadata
     id="metadata16"><rdf:RDF><cc:Work
         rdf:about=""><dc:format>image/svg+xml</dc:format><dc:type
           rdf:resource="http://purl.org/dc/dcmitype/StillImage" /><dc:title></dc:title></cc:Work></rdf:RDF></metadata><defs
     id="defs14" /><sodipodi:namedview
     pagecolor="#ffffff"
     bordercolor="#666666"
     borderopacity="1"
     objecttolerance="10"
     gridtolerance="10"
     guidetolerance="10"
     inkscape:pageopacity="0"
     inkscape:pageshadow="2"
     inkscape:window-width="1440"
     inkscape:window-height="841"
     id="namedview12"
     showgrid="false"
     inkscape:zoom="1.3320889"
     inkscape:cx="88.58268"
     inkscape:cy="88.58268"
     inkscape:window-x="0"
     inkscape:window-y="27"
     inkscape:window-maximized="1"
     inkscape:current-layer="svg2" /><g
     id="Ebene_x0020_2"><metadata
       id="CorelCorpID_1Corel-Layer" /><path
       fill="white"
       d="M347.464 50c23.402,0 29.35,17.625 31.904,33.35 7.679,47.267 8.964,92.283 9.153,141.57 0.111,28.43 -1.976,64.537 -9.815,96.44 -3.511,14.288 -8.174,27.733 -14.313,39.267 -5.857,11.007 -17.421,17.433 -30.359,17.433l-168.068 0c-12.938,0 -24.502,-6.426 -30.359,-17.433 -6.139,-11.534 -10.802,-24.979 -14.313,-39.267 -7.839,-31.903 -9.926,-68.01 -9.815,-96.44 0.189,-49.287 1.474,-94.303 9.153,-141.57 2.554,-15.725 8.502,-33.35 31.904,-33.35l194.928 0zm5.898 261.738l-61.76 0 0 32.824 45.188 0c9.116,0 16.572,-7.385 16.572,-16.412l0 -16.412zm-144.964 0l-61.76 0 0 16.412c0,9.026 7.456,16.412 16.572,16.412l45.188 0 0 -32.824zm181.37 138.262l0 -16.744 -55.593 -8.36 0 -26.884 -26.092 0 0 26.74 -116.166 0 0 -26.74 -26.092 0 0 26.884 -55.593 8.36 0 16.744 279.536 0zm-245.29 -362.307c-5.598,37.66 -7.706,85.467 -8.058,136.467l113.58 0 113.58 0c-0.352,-51 -2.46,-98.807 -8.058,-136.467l-211.044 0z"
       id="path10" /></g></svg>